<svg width="455.341" height="536.54" xmlns="http://www.w3.org/2000/svg">
  <path d="M223.5 533.6c-13.5-5.7-72.8-30.7-106-44.6-12.3-5.1-37.3-15.6-55.5-23.3l-33-13.8-.5-81.5-.5-81.5-13.7-11.3C4.1 269.2.6 265.8.6 264.1c0-1.2 1-6.6 2.4-12 1.3-5.3 6.1-24.8 10.6-43.2 4.4-18.4 11.5-47 15.5-63.5l7.4-30-2.2-1.5c-12.2-8-22.7-25.1-25.2-41-1-6.7 0-6.8 13-1.1 14 6 20.4 8.4 21.1 7.7.6-.6 1.411-.908-7.089-6.508-8.666-7.866-19.8-14.33-23.6-29.03C5.612 21.063 5.2 4.1 8.1.6c.1-.2 3.3 2.4 7.1 5.8 13.5 12.4 28.5 22.5 47.3 32 12.7 6.4 32.6 15.1 34.7 15.2.9 0 3.9-.6 6.7-1.4 7-2.1 35.7-10.9 50-15.2 6.6-2 32-9.7 56.5-17.1 18-5.4 36-10.9 54.1-16.4l9.6-2.9 8.8 6.1c10.5 7.3 20 14.5 20.7 15.8.3.5-3 15.4-7.4 33.1-4.4 17.7-7.8 32.3-7.6 32.6.2.2 3.5-1.5 7.2-3.9 8.3-5.3 14.1-8 42.1-19.5C371.7 51 380.7 47 394.1 40.3c22.8-11.4 35.5-19.8 50.1-33.2l7.2-6.6 1.2 2.9c1.9 4.8 2.6 16.6 1.3 25.1-2.9 19.8-14.3 35.7-33.8 47.2-5 2.9-8.9 5.5-8.7 5.8.5.5 18.3-6.1 28.8-10.9 4.8-2.1 9.2-3.6 9.7-3.2 1.2.7.4 7.9-1.7 14.9-5.7 18.5-20.6 33.4-40.5 40.4-6.4 2.3-3.1 2.5 6.2.5 9.6-2.1 11-1.9 11 1 0 7.5-11.7 22.8-22.4 29.3-5.6 3.4-19.4 8-24.3 8.1-2.3 0-2.4.1-.6.9 1.1.4 3.8.8 6 .9 5.8.1 7.2 1.2 5.2 4.2-3.2 4.9-11.4 11.8-17.2 14.6-10 4.8-21.5 6.2-34 4.1-2.7-.4-5.1-.6-5.3-.5-.1.1 2.8 1.9 6.7 4 3.8 2 7 4.3 7 5 0 2.3-12.3 7.5-20.5 8.7-6.2.8-8.9.8-14.8-.4-3.9-.8-8-1.9-9.1-2.3-1.6-.6-1.4-.2.7 2.1 1.5 1.6 2.7 3.4 2.7 4.1 0 2.5-4.6 3.6-14.5 3.7-9.4 0-10.4-.1-17.5-3.5-4.1-1.9-9.9-5.6-12.9-8.1-3.6-3-5.7-4.1-6.1-3.4-1 1.9-5.3 20.6-4.8 21 0 0 60.5 20.7 61.8 20.6.7 0 5.5-4 10.6-8.9 15-14.5 34.6-26.2 55-32.8 12.5-4 15.8-4.5 17.7-2.6 1.9 1.9 2 4.8.2 6.3-.7.6-6.4 3.6-12.7 6.6-12.8 6.3-24.7 13.7-36.4 22.9-8.1 6.4-16.2 14.1-15.4 14.7.2.2 2.4 1 4.9 1.8l4.5 1.5 8.7-5.8c8.6-5.6 20-11 26.2-12.3 5.2-1.1 8.5 4.2 4.6 7.5-.9.8-4.6 3.2-8.2 5.3-7.1 4.2-14.9 9.7-14.9 10.5 0 .2 5.9 2.5 13.2 4.9 29.1 9.7 64.1 22.1 65.4 23.1 1.1.9 1.3 16.2 1.3 85.8v84.7l-3.2 1.5c-1.7.8-21.2 8.9-43.2 18-22 9-52.8 21.7-68.5 28.2-15.6 6.4-38.6 15.9-51 21-12.3 5-26.3 10.8-30.9 12.8-4.6 1.9-8.7 3.5-9 3.5-.2 0-3.4-1.3-7-2.8z" fill="#F2F2F7"/>
  <path d="M235.36 325.139c3.106-1.607 4.836-4.788 5.766-10.608l.635-3.967h24.744v-16h-13v-10.905l6.25-.298 6.25-.297.293-7.22.293-7.22-12.605-.28-12.605-.28-.48-46.832c-.263-25.757-.224-47.635.088-48.617.452-1.423 2.002-1.889 7.633-2.292 7.509-.537 10.503-2.03 14.321-7.144 1.95-2.61 2.062-4.078 2.062-26.938 0-35.727 1.062-34.675-35-34.672-22.186.002-24.246.152-27.26 1.99-1.792 1.092-4.152 3.453-5.245 5.246-1.836 3.01-1.988 5.074-1.991 27.058-.004 26.118.282 27.632 5.995 31.7 2.185 1.556 5.111 2.314 10.496 2.722l7.467.564.025 73.824c.019 54.744.332 74.496 1.21 76.426 2.257 4.95 9.197 6.864 14.658 4.04z" fill="#d4af37"/>
  <path d="M223.505 533.651c-13.518-5.764-72.877-30.749-106-44.616a35515.432 35515.432 0 01-55.5-23.318l-33-13.897-.5-81.519-.5-81.519-13.75-11.304c-10.29-8.46-13.75-11.875-13.75-13.57 0-1.245 1.095-6.67 2.432-12.054 1.338-5.385 6.112-24.865 10.609-43.29 4.496-18.425 11.514-47 15.594-63.5l7.418-30-2.276-1.5c-12.236-8.062-22.74-25.153-25.2-41-1.043-6.718.052-6.818 13.077-1.195 14.053 6.067 20.47 8.403 21.169 7.705.643-.643 1.006-.356-7.536-5.933-14.147-9.236-24.987-23.65-28.803-38.298C4.553 25.487 5.255 4.145 8.113.688c.17-.207 3.366 2.425 7.101 5.848C28.75 18.942 43.741 29.079 62.505 38.514c12.753 6.412 32.685 15.16 34.796 15.27.937.05 3.954-.606 6.704-1.456 7.043-2.178 35.734-10.935 50-15.262 6.6-2.002 32.025-9.728 56.5-17.168a69359.72 69359.72 0 0154.18-16.454l9.679-2.926 8.82 6.164c10.57 7.387 20.02 14.587 20.799 15.845.31.503-3.062 15.4-7.495 33.104-4.432 17.704-7.868 32.381-7.634 32.615.233.233 3.513-1.563 7.288-3.993 8.358-5.378 14.16-8.074 42.108-19.565 33.806-13.899 42.8-17.826 56.255-24.56 22.84-11.431 35.505-19.83 50.11-33.234l7.297-6.696 1.2 2.933c1.995 4.872 2.64 16.697 1.372 25.114-2.993 19.841-14.378 35.742-33.821 47.233-5.04 2.979-8.985 5.592-8.77 5.808.547.546 18.317-6.166 28.868-10.903 4.815-2.162 9.224-3.64 9.798-3.286 1.26.779.424 7.901-1.757 14.967-5.719 18.529-20.618 33.403-40.559 40.491-6.491 2.308-3.15 2.58 6.262.509 9.641-2.121 11-1.99 11 1.062 0 7.585-11.708 22.872-22.488 29.363-5.693 3.428-19.413 8.013-24.375 8.145-2.372.063-2.436.157-.637.93 1.1.472 3.8.898 6 .945 5.858.125 7.25 1.262 5.261 4.296-3.214 4.905-11.435 11.898-17.261 14.682-10.064 4.808-21.536 6.2-34 4.125-2.75-.458-5.146-.698-5.324-.533-.177.164 2.86 1.971 6.75 4.015 3.89 2.045 7.074 4.308 7.074 5.03 0 2.306-12.36 7.585-20.506 8.758-6.216.896-8.931.813-14.803-.453-3.955-.852-8.091-1.915-9.191-2.362-1.618-.657-1.475-.247.75 2.147 1.512 1.628 2.75 3.481 2.75 4.12 0 2.507-4.623 3.69-14.5 3.71-9.446.019-10.416-.18-17.5-3.58-4.125-1.98-9.973-5.665-12.995-8.188-3.621-3.024-5.71-4.183-6.125-3.4-1.017 1.918-5.304 20.604-4.821 21.013.906.769 60.498 20.706 61.843 20.69.771-.008 5.579-4.056 10.683-8.994 15.047-14.557 34.655-26.269 55.034-32.872 12.57-4.074 15.835-4.552 17.783-2.605 1.953 1.954 2.065 4.824.245 6.334-.744.617-6.465 3.631-12.713 6.698-12.856 6.31-24.72 13.793-36.43 22.978-8.183 6.418-16.22 14.113-15.439 14.782.24.206 2.474 1.053 4.967 1.884l4.532 1.51 8.798-5.805c8.605-5.678 20.023-11.056 26.264-12.371 5.295-1.116 8.59 4.293 4.624 7.591-.963.801-4.675 3.205-8.25 5.343-7.18 4.295-14.9 9.726-14.961 10.527-.021.284 5.923 2.506 13.211 4.938 29.151 9.73 64.147 22.131 65.41 23.18 1.1.913 1.34 16.272 1.34 85.875v84.764l-3.25 1.52c-1.788.837-21.25 8.938-43.25 18.002-22 9.064-52.825 21.773-68.5 28.241a55532.328 55532.328 0 01-51 21.014c-12.375 5.09-26.311 10.873-30.97 12.852-4.658 1.98-8.708 3.567-9 3.528-.291-.039-3.455-1.318-7.03-2.842zm4.756-86.17l-.256-82.084-15.5-5.826c-8.525-3.204-26.75-10.081-40.5-15.284-13.75-5.202-47.725-18.028-75.5-28.502-27.775-10.475-52.88-19.985-55.787-21.133-2.908-1.149-5.723-2.088-6.256-2.088-.62 0-.877 28.173-.713 78.066l.256 78.066 6.5 2.817c3.575 1.55 34.625 14.61 69 29.022 82.88 34.748 91.592 38.42 104.5 44.048 6.05 2.637 11.79 4.837 12.756 4.888 1.663.088 1.742-4.252 1.5-81.99zm18.59 77c6.685-2.795 15.754-6.594 20.154-8.443 4.4-1.848 15.65-6.492 25-10.319 28.552-11.686 67.315-27.657 80.5-33.166 6.875-2.872 21.275-8.814 32-13.204 10.725-4.39 21.188-8.68 23.25-9.535l3.75-1.554V286.653l-6.25 2.408c-8.58 3.306-177.734 70.967-185.5 74.2l-6.25 2.603v81.85c0 45.017.268 81.85.596 81.85.328 0 6.065-2.287 12.75-5.083zm64.154-195.385c30.338-11.976 113.99-45.69 114.411-46.11.232-.232.138-.707-.21-1.054-.347-.348-16.892-6.185-36.766-12.973l-36.135-12.34-3.845 3.222c-2.114 1.773-3.532 3.536-3.15 3.918.382.383 11.777 4.5 25.32 9.149 26.14 8.972 29.247 10.245 28.391 11.63-.638 1.031-13.042 5.938-107.016 42.333-24.75 9.585-48.833 18.874-53.517 20.643l-8.517 3.217-17.483-6.667a20281.63 20281.63 0 00-36.983-14.05c-10.725-4.06-28.275-10.73-39-14.822a12034.192 12034.192 0 00-37-14.036c-9.625-3.627-21.227-8.015-25.782-9.75-4.554-1.734-8.125-3.646-7.933-4.248.191-.602 17.305-6.702 38.031-13.555s37.674-12.703 37.662-13c-.012-.297-.879-1.654-1.926-3.016l-1.903-2.478-49.075 16.359c-26.99 8.997-49.074 16.654-49.074 17.017 0 .362 6.862 3.193 15.25 6.291 8.387 3.098 30.325 11.332 48.75 18.297 18.425 6.966 48.8 18.445 67.5 25.51a34487.19 34487.19 0 0146.862 17.734l12.861 4.89 32.139-12.897c17.676-7.094 39.338-15.74 48.138-19.214zm-75.645-3.957c3.106-1.607 4.836-4.788 5.766-10.608l.635-3.967h24.744v-16h-13v-10.905l6.25-.298 6.25-.297.293-7.22.293-7.22-12.605-.28-12.605-.28-.48-46.832c-.263-25.757-.224-47.635.088-48.617.452-1.423 2.002-1.889 7.633-2.292 7.509-.537 10.503-2.03 14.321-7.144 1.95-2.61 2.062-4.078 2.062-26.938 0-35.727 1.062-34.675-35-34.672-22.186.002-24.246.152-27.26 1.99-1.792 1.092-4.152 3.453-5.245 5.246-1.836 3.01-1.988 5.074-1.991 27.058-.004 26.118.282 27.632 5.995 31.7 2.185 1.556 5.111 2.314 10.496 2.722l7.467.564.025 73.824c.019 54.744.332 74.496 1.21 76.426 2.257 4.95 9.197 6.864 14.658 4.04zm-20.877-174.102c-.914-1.1-1.215-5.502-1.08-15.75.156-11.895.457-14.428 1.835-15.473 1.134-.86 5.943-1.25 15.387-1.25 11.155 0 14.033.295 15.309 1.571 1.277 1.277 1.571 4.165 1.571 15.429s-.294 14.15-1.571 15.428c-2.284 2.283-29.561 2.322-31.451.045zm-17.993 161c.069-22.631-8.521-45.807-22.324-60.227-6.12-6.394-8.41-7.578-4.94-2.554 10.711 15.507 22.531 46.315 24.809 64.66.863 6.955 2.431 5.755 2.455-1.879zm88.015 2.558c0-3.825 6.236-20.93 11.552-31.69 15.943-32.265 45.353-60.77 81.948-79.427 6.05-3.085 11.675-5.84 12.5-6.125.825-.283 1.257-.782.96-1.108-.904-.995-23.192 6.91-32.09 11.381-21.483 10.796-40.435 26.985-54.36 46.438-9.953 13.904-16.364 28.647-20.113 46.253-2.56 12.015-3.038 17.761-1.397 16.747.55-.34 1-1.451 1-2.47zm-114.441-12.323c-5-31.073-21.116-57.447-45.917-75.144-6.638-4.737-20.506-12.034-21.321-11.218-.262.26 2.147 2.27 5.352 4.464 25.9 17.73 47.906 48.15 58.372 80.69 1.77 5.5 3.435 10.675 3.702 11.5 1.295 3.998 1.19-1.728-.188-10.292zm146.015-10.459c11.07-19.027 32.191-40.482 52.017-52.839 4.118-2.566 7.295-4.858 7.06-5.092-.234-.234-3.223.71-6.643 2.1-23.555 9.572-41.345 26.155-51.557 48.06-6.275 13.461-6.778 17.913-.877 7.771zm-278.52-40.75c22.506-92.369 23.08-94.932 21.51-95.991-9.15-6.168-13.495-9.993-17.416-15.334l-4.645-6.326-9.234 37.326c-15.499 62.65-22.437 91.82-22.09 92.864.183.548 5.505 5.216 11.827 10.373 9.41 7.675 11.629 9.078 12.238 7.732.41-.904 3.924-14.693 7.81-30.643zm48.196 15.913c26.262-8.745 47.75-16.191 47.75-16.546 0-.355-.818-1.655-1.819-2.89l-1.818-2.247-42.76 14.224c-23.517 7.824-42.945 14.038-43.173 13.81-.228-.228 2.288-11.856 5.592-25.839 10.513-44.506 11.829-50.048 16.357-68.924 2.44-10.175 4.366-18.557 4.28-18.626-1.453-1.154-4.53-1.153-4.973 0-1.502 3.916-29.614 120.448-29.668 122.983-.01.471.545.654 1.232.407.688-.248 22.738-7.606 49-16.352zm245.792-11.956c3.839-3.96 3.397-4.862-2.987-6.09-3.068-.59-3.757-.29-6.293 2.736l-2.849 3.398 3.794 1.723c2.086.949 4.042 1.736 4.347 1.75.304.015 2.1-1.568 3.988-3.517zm-169.191-.554c3.458-1.206 3.83-2.417 1.637-5.317-1.3-1.717-1.863-1.79-5.468-.71-4.312 1.292-4.715 2.038-2.78 5.138 1.428 2.286 2.275 2.4 6.61.889zm142.56-7.98c1.424-1.691 2.589-3.427 2.589-3.857 0-.43-13.162-5.309-29.25-10.843-16.087-5.535-30.063-10.382-31.057-10.771-1.626-.638-1.776-.174-1.5 4.633l.307 5.343 5.5 1.714c3.025.942 15.175 5.097 27 9.233s22.023 7.544 22.661 7.573c.639.029 2.326-1.332 3.75-3.024zm-105.98-4.292l15.069-5.13.307-3.695.307-3.696-19.307 6.445c-10.619 3.545-19.937 6.682-20.707 6.971-1.082.408-.866 1.095.957 3.035 2.864 3.049 2.894 3.044 23.375-3.93zm-15.681-7.588l31.25-10.228v-3.407c0-1.874-.265-3.407-.589-3.407-.323 0-12.586 4-27.25 8.889-14.663 4.889-29.91 9.897-33.88 11.13l-7.219 2.24 2.22 2.817c1.22 1.55 2.668 2.677 3.218 2.505.55-.17 15.062-4.914 32.25-10.539zm-4.285-28.575c7.9-2.058 14.433-5.753 21.317-12.055 4.008-3.67 5.27-5.37 4.218-5.688-.825-.25-4.65-1.35-8.5-2.448-3.85-1.097-7.69-2.294-8.535-2.66-.876-.38-2.385.097-3.514 1.11-1.088.975-6.873 6.274-12.855 11.774-10.728 9.863-10.837 10.008-7.986 10.631 5.071 1.109 9.81.91 15.855-.664zm69.469-7.644c2.147-9.327 1.754-12.47-1.247-9.978-2.082 1.728-3.146 19.155-1.17 19.155.167 0 1.255-4.13 2.417-9.177zm49.89 8.306c.965-.611-1.351-3.303-8.5-9.881-5.403-4.973-11.25-10.223-12.992-11.665l-3.169-2.624-7.331 2.429c-4.033 1.336-8.207 2.584-9.277 2.773-1.623.288-1.048 1.227 3.48 5.684 6.11 6.014 12.081 9.807 19.452 12.356 5.255 1.817 16.072 2.365 18.338.928zm-143-9.156c5.55-1.948 16.176-8.488 16.176-9.956 0-.406-2.335-1.015-5.19-1.353-2.854-.338-7.51-1.751-10.35-3.14-2.837-1.388-5.564-2.54-6.06-2.559-1.323-.05-29.274 13.427-29.342 14.149-.032.338 1.967 1.387 4.443 2.333 10.237 3.91 20.192 4.082 30.324.526zm177.676.437c2.75-.922 5.399-2.038 5.886-2.48.488-.442-5.653-4.064-13.647-8.05l-14.533-7.246-6.076 2.727c-3.342 1.5-8.338 2.994-11.103 3.322-2.765.327-5.027.923-5.027 1.323 0 .9 6.116 4.992 11.782 7.883 10.031 5.117 22.184 6.054 32.718 2.521zm-211.386-15.387c7.002-1.27 20.875-5.347 20.881-6.137.003-.338-1.937-1.356-4.31-2.263-2.373-.906-7.188-3.962-10.699-6.792l-6.384-5.144-12.05 1.663c-6.629.915-16.485 2.08-21.903 2.59-5.418.51-10.05 1.127-10.293 1.37-.867.868 8.989 8.711 14.068 11.196 8.608 4.212 19.792 5.493 30.69 3.517zm90.886-1.962c0-2.704-.35-2.991-4.379-3.595-6.874-1.031-14.084-5.696-17.325-11.21-2.771-4.715-2.797-4.914-2.875-22.756-.115-26.24-3.596-36.838-15.863-48.282-10.225-9.54-17.443-12.961-86.462-40.98-2.101-.854-.68 6.499 2.933 15.17 6.097 14.637 15.804 23.346 38.483 34.527 23.386 11.53 26.899 15.155 33.974 35.065 10.111 28.456 22.845 41.172 44.014 43.957 3.3.434 6.338.846 6.75.916.413.07.75-1.196.75-2.812zm49.395.332c8.485-2.053 14.94-5.927 21.424-12.86 6.363-6.802 10.241-14.106 15.682-29.533 4.178-11.85 7.986-18.465 13.33-23.156 2.01-1.766 10.184-6.352 18.163-10.191 17.012-8.186 23.763-12.532 30.24-19.466 6.585-7.049 10.49-13.547 12.796-21.288 3.526-11.84 4.608-11.709-18.28-2.221-40.461 16.772-46.46 19.42-54.037 23.856-13.574 7.945-22.699 18.866-26.71 31.966-.673 2.2-1.525 13.052-1.893 24.116-.654 19.715-.722 20.2-3.397 24.242-3.427 5.178-8.653 8.666-15.663 10.454-5.46 1.393-6.71 2.526-5.697 5.166.608 1.583 4.145 1.31 14.042-1.085zm96.719 1.601c7.374-1.376 16.61-6.087 21.232-10.83l3.846-3.946-6.346-.692c-3.49-.38-11.296-1.348-17.346-2.15-22.615-2.998-20.215-3.2-27.039 2.277-5.78 4.64-7.935 5.933-13.44 8.069-2.246.87-1.73 1.208 5.5 3.585 13.796 4.537 23.395 5.59 33.593 3.687zm-180.864-1.636c2.063-.341 3.732-.899 3.711-1.24-.021-.34-1.991-2.054-4.378-3.808l-4.338-3.19-6.873 2.037c-5.658 1.677-10.226 3.794-8.322 3.858.248.008 2.25.663 4.45 1.456 4.327 1.559 9.816 1.868 15.75.887zm121.73-.967c2.21-.885 4.018-1.897 4.015-2.25-.003-.353-3.554-1.705-7.892-3.004l-7.887-2.363-4.57 3.363c-2.512 1.85-4.586 3.67-4.607 4.046-.116 2.042 15.96 2.201 20.94.208zm17.478-9.451c4.358-1.346 8.085-3.338 10.757-5.75l4.088-3.69-5.402-.675c-2.97-.37-10.576-.98-16.901-1.355l-11.5-.681-3.307 4.715c-1.819 2.593-3.069 4.953-2.778 5.244.636.636 14.401 4.074 16.73 4.178.904.04 4.645-.853 8.313-1.986zm-151.238-.92l3.72-1.098-3.628-5.051-3.629-5.051-7.591.575c-4.176.317-11.53.86-16.342 1.209-4.812.348-8.75.95-8.75 1.34 0 1.982 7.922 7.183 13.994 9.186 3.17 1.046 17.318.34 22.226-1.11zm-47.483-12.678l3.236-.56-5.77-3.73c-6.225-4.023-12.287-10.438-15.199-16.083l-1.821-3.531-16.452-1.213c-15.095-1.112-36.826-4.173-41.004-5.776-2.778-1.067-2.073 1.38 2.36 8.183 8.827 13.55 20.904 20.82 38.913 23.43 5.55.805 29.75.317 35.737-.72zm267.15-.918c8.952-2.045 19.108-7.667 24.873-13.769 5.014-5.307 10.894-14.335 9.95-15.278-.292-.292-4.284.17-8.87 1.03-10.81 2.023-33.675 4.567-41.34 4.598-7.03.03-7.406.225-10.756 5.575-3.34 5.334-10.16 11.98-15.54 15.14-2.362 1.387-4.012 2.805-3.666 3.15 1.04 1.04 19.309 1.949 29.462 1.466 5.225-.249 12.374-1.109 15.887-1.912zm-225.181-2.797c.28-.28-.552-2.448-1.848-4.818-1.656-3.027-3.697-4.971-6.858-6.533-6.456-3.19-46.037-9.754-45.975-7.625.059 2.013 7.317 10.547 11.1 13.05 2.27 1.502 7.108 3.78 10.751 5.063 5.99 2.108 7.854 2.285 19.472 1.852 7.067-.264 13.078-.709 13.358-.989zm177.68-2.974c5.278-2.608 8.862-5.257 12.062-8.915 5.666-6.478 5.828-7.937.802-7.248-2.062.282-9.366 1.206-16.23 2.052-16.225 2-25.309 4.11-28.502 6.622-3.47 2.73-7.05 9.708-5.298 10.33 2.066.734 12.639 1.254 21.468 1.055 7.23-.163 9.067-.619 15.698-3.896zM153.505 135.03c0-1.259-5.082-10.193-7.194-12.645-4.154-4.826-13.66-10.545-23.571-14.183-12.658-4.646-30.12-9.816-31.871-9.437-2.458.533 3.855 11.772 9.773 17.397 8.722 8.291 12.27 9.872 35.863 15.983 12.176 3.153 17 3.972 17 2.885zm170.307-2.945c20.12-4.335 28.51-8.12 36.75-16.58 4.653-4.777 10.906-15.312 9.765-16.453-1.306-1.306-34.4 9.335-44.097 14.178-8.798 4.395-13.712 8.927-17.036 15.717-1.479 3.02-2.689 5.8-2.689 6.179 0 .378 1.238.421 2.75.095l14.557-3.136zm-220.298-6.324c-8.293-5.651-14.967-14.113-18.483-23.433-.983-2.605-2.323-5.181-2.98-5.725-.655-.545-9.631-3.48-19.946-6.523-10.315-3.043-25.344-8.205-33.399-11.47-8.054-3.265-14.85-5.731-15.101-5.48-.752.752 2.93 11.51 6.086 17.782 4.346 8.64 14.616 18.427 24.55 23.4 10.92 5.465 43.754 12.908 57.764 13.094l4 .053zm272.991-.646c17.697-2.789 30.716-6.312 39.761-10.759 7.907-3.887 18.127-13.196 22.61-20.593 3.3-5.447 7.629-16.546 7.629-19.564 0-1.048-3.122-.166-11.75 3.319-13.833 5.587-31.688 11.641-45.993 15.595l-10.244 2.832-4.464 9.176c-3.692 7.59-5.703 10.324-11.628 15.81-8.596 7.958-9.035 7.828 14.079 4.184zm-329.42-4.094c-6.931-2.877-6.58-2.816-6.58-1.15 0 .72 1.913 1.778 4.25 2.351 7.46 1.83 8.429 1.331 2.33-1.2zM282.873 90.06c4.178-15.564 14.632-58.693 14.632-60.366 0-2.352 10.07-5.206-112.5 31.89-20.35 6.158-37.394 11.435-37.876 11.726-.482.291.502 1.109 2.187 1.817 3.272 1.376 3.081 1.429 83.689-23.063 36.36-11.048 57.97-17.364 58.294-17.038.402.402-14.554 60.676-17.255 69.539-.468 1.536.776.379 3.23-3.005 2.3-3.175 4.671-8.043 5.6-11.5zM100.505 94.3c0-.146-2.682-3.084-5.959-6.528-8.373-8.8-15.987-25.092-16.03-34.3-.01-2.267-1.045-3.072-8.261-6.42-20.062-9.307-41.282-22.64-54.5-34.245L9.505 7.32l-.206 4.873c-.636 15.005 2.385 27.71 9.024 37.95 6.5 10.027 20.394 21.53 32.44 26.857 14.352 6.347 49.742 18.655 49.742 17.3zm280.5-6.306c30.962-10.955 39.296-15.308 51.216-26.752 10.168-9.762 15.425-19.344 17.912-32.648 1.501-8.033 1.512-18.222.021-19.713-.377-.378-2.365.911-4.417 2.864-10.72 10.197-34.613 25.536-53.46 34.32-10.17 4.74-10.73 5.158-10.75 8.04-.07 9.74-6.674 24.386-15.314 33.959-7.1 7.866-7.646 7.868 14.792-.07zM149.273 67.156c24.324-7.724 133.736-40.683 141.76-42.704 2.479-.624 4.713-1.47 4.966-1.88.615-.994-20.885-16.008-22.923-16.008-1.51 0-21.585 5.837-39.071 11.36-8.364 2.643-61.542 18.76-86.5 26.217-29.838 8.915-39.978 12.067-40.501 12.59-.296.297 2.958 2.023 7.231 3.836 11.49 4.876 23.732 9.958 24.038 9.978.148.01 5.098-1.515 11-3.39z" fill="#66666B"/>
  <path d="M170.064 302.272c-5-31.073-21.116-57.447-45.917-75.144-6.638-4.737-20.506-12.034-21.321-11.218-.262.26 2.147 2.27 5.352 4.464 25.9 17.73 47.906 48.15 58.372 80.69 1.77 5.5 3.435 10.675 3.702 11.5 1.295 3.998 1.19-1.728-.188-10.292zm146.015-10.459c11.07-19.027 32.191-40.482 52.017-52.839 4.118-2.566 7.295-4.858 7.06-5.092-.234-.234-3.221.71-6.643 2.1-23.555 9.572-41.345 26.155-51.557 48.06-6.275 13.461-6.778 17.913-.877 7.771zm-120.074 20.75c0-22.63-8.521-45.806-22.324-60.227-6.119-6.394-8.41-7.578-4.94-2.554 10.711 15.507 22.532 46.315 24.809 64.66.863 6.955 2.432 5.755 2.455-1.878zm88.5 2.032c0-3.825 6.236-20.93 11.552-31.69 15.943-32.265 45.353-60.77 81.948-79.427 6.05-3.085 11.675-5.84 12.5-6.125.825-.283 1.257-.782.96-1.108-.904-.995-23.192 6.91-32.09 11.381-21.483 10.796-40.435 26.985-54.36 46.438-9.953 13.904-16.364 28.647-20.113 46.253-2.56 12.015-3.038 17.761-1.397 16.747.55-.34 1-1.451 1-2.47z" fill="#E5E5EA"/>
</svg>
